<svg width="72" height="83" viewBox="0 0 72 83" fill="none" xmlns="http://www.w3.org/2000/svg">
<path d="M35.9356 0C33.0607 0 30.8019 2.25881 30.8019 5.13366V10.2673H23.1015C21.664 10.2673 20.5346 11.3967 20.5346 12.8341V20.5346H51.3366V12.8341C51.3366 11.3967 50.2072 10.2673 48.7697 10.2673H41.0693V5.13366C41.0693 2.25881 38.8104 0 35.9356 0ZM2.56683 10.2673C1.1294 10.2673 0 11.3967 0 12.8341V79.5717C0 81.0091 1.1294 82.1385 2.56683 82.1385H69.3044C70.7418 82.1385 71.8712 81.0091 71.8712 79.5717V12.8341C71.8712 11.3967 70.7418 10.2673 69.3044 10.2673H61.6039V30.8019H10.2673V10.2673H2.56683Z" fill="black"/>
</svg>
