<svg width="259" height="220" viewBox="0 0 259 220" fill="none" xmlns="http://www.w3.org/2000/svg">
<path d="M42.8621 15.8116C42.8249 15.8116 43.2962 13.5363 43.3396 13.3716C43.873 11.7428 45.8823 8.91238 47.8235 8.91848C48.1468 8.92745 48.4646 9.00338 48.7561 9.14133C49.0476 9.27927 49.3063 9.47613 49.5152 9.71905C49.7241 9.96197 49.8786 10.2455 49.9686 10.5511C50.0586 10.8567 50.0821 11.1776 50.0375 11.4927C49.8948 12.8347 48.6669 13.9816 47.5568 14.6404C46.2544 15.4395 42.8621 15.8116 42.8621 15.8116Z" fill="#407BFF"/>
<path d="M39.0976 0.512548C40.9581 1.15916 41.8388 4.48981 41.7768 6.19783C41.7768 6.34424 41.4295 8.63787 41.3985 8.63787H41.3612C41.5039 9.16248 41.6589 9.72979 41.814 10.352C42.0868 11.4988 42.3845 12.792 42.614 14.2317C42.8801 15.7738 43.054 17.33 43.1349 18.8921C43.2339 20.6426 43.1737 22.3983 42.9551 24.1382C42.9522 24.1584 42.9522 24.179 42.9551 24.1992C43.197 23.6929 43.9164 22.2899 43.9784 22.1923C44.9334 20.7649 47.625 18.5322 49.5041 19.0629C49.8127 19.1555 50.0979 19.311 50.3412 19.5193C50.5845 19.7276 50.7804 19.984 50.9162 20.2718C51.052 20.5596 51.1245 20.8723 51.1291 21.1896C51.1337 21.5068 51.0703 21.8215 50.9429 22.113C50.4468 23.3696 48.9584 24.1565 47.7118 24.5042C46.304 24.9007 43.1659 24.4371 42.9179 24.3944C42.6527 26.1604 42.2673 27.9069 41.7644 29.6222C41.4749 30.6226 41.1607 31.621 40.8217 32.6173C41.0388 32.1842 41.2434 31.7999 41.2744 31.7511C42.2295 30.3176 44.9272 28.0911 46.8002 28.6218C47.1087 28.7143 47.3939 28.8698 47.6372 29.0781C47.8806 29.2864 48.0765 29.5429 48.2123 29.8307C48.348 30.1185 48.4206 30.4312 48.4252 30.7484C48.4298 31.0657 48.3663 31.3803 48.239 31.6718C47.7428 32.9284 46.2544 33.7154 45.0079 34.0631C43.7613 34.4108 41.0574 34.0631 40.3504 33.9716L39.9597 35.1184C39.3395 36.9484 38.6635 38.7784 38.0991 40.5719C37.8945 41.1819 37.7146 41.8407 37.5348 42.4751C37.7332 42.0908 37.9007 41.7675 37.9317 41.7187C38.8806 40.2913 41.5783 38.0586 43.4512 38.5893C43.7592 38.6829 44.0438 38.8389 44.2867 39.0472C44.5297 39.2556 44.7255 39.5117 44.8616 39.799C44.9978 40.0864 45.0712 40.3986 45.0772 40.7156C45.0831 41.0326 45.0215 41.3473 44.8962 41.6394C44.4001 42.9021 42.9055 43.6829 41.6589 44.0367C40.4124 44.3905 37.9751 44.0794 37.1317 43.9635C36.9642 44.6162 36.803 45.2689 36.6727 45.9094C36.5921 46.3547 36.4867 46.7696 36.4309 47.2149L36.2448 48.5264C36.158 49.3621 36.0588 50.2222 35.9968 51.0396C35.9471 51.6069 35.9099 52.1498 35.8727 52.6989C36.0712 52.0888 36.4929 50.8261 36.4929 50.7285C37.1797 49.3865 38.2045 48.2398 39.4697 47.3979C39.5372 47.2424 39.6225 47.095 39.724 46.9587C39.8996 46.6921 40.1303 46.4651 40.4012 46.2923C40.6721 46.1195 40.9771 46.0049 41.2961 45.956C41.6151 45.907 41.941 45.9249 42.2525 46.0083C42.5641 46.0917 42.8542 46.2389 43.1039 46.4401C44.5799 47.6907 44.2078 51.1189 43.5318 52.6927C43.4946 52.7842 42.9427 53.742 42.5892 54.3459C42.8559 54.0226 43.1039 53.7054 43.383 53.3821C43.9226 52.7293 44.4807 52.0949 45.0761 51.4117L45.9877 50.4418C46.2854 50.1124 46.6451 49.8318 46.9738 49.4719C47.749 48.7338 48.5739 48.0201 49.4235 47.3186C48.8467 46.855 46.8126 45.1713 46.2296 44.0245C45.6466 42.8777 45.2311 41.2734 45.8389 40.0595C45.9726 39.77 46.1666 39.5113 46.4084 39.3003C46.6502 39.0893 46.9344 38.9306 47.2425 38.8346C47.5507 38.7385 47.8759 38.7073 48.1971 38.7428C48.5184 38.7783 48.8284 38.8798 49.1072 39.0407C50.7507 40.0595 50.9181 43.506 50.4902 45.1408C50.4902 45.2445 50.0189 46.3975 49.7646 47.0258C50.2793 46.611 50.7879 46.1961 51.3212 45.8057C52.8593 44.6406 54.4531 43.4999 56.0345 42.3592L57.4795 41.31C57.2749 41.1453 54.819 39.1932 54.1616 37.9061C53.5848 36.7654 53.1631 35.155 53.7709 33.9472C53.9038 33.657 54.0974 33.3977 54.3391 33.1861C54.5808 32.9746 54.8652 32.8155 55.1736 32.7194C55.482 32.6233 55.8076 32.5922 56.1291 32.6282C56.4505 32.6642 56.7607 32.7665 57.0392 32.9284C58.6889 33.9411 58.8501 37.3876 58.4222 39.0285C58.3912 39.1505 57.7524 40.8098 57.5726 41.2246C58.6269 40.4499 59.6749 39.6691 60.6734 38.8516C62.032 37.7623 63.3164 36.5865 64.5185 35.3319C64.4255 35.2526 61.8518 33.2274 61.182 31.9158C60.599 30.7751 60.1835 29.1586 60.7913 27.9508C60.9243 27.6615 61.1177 27.4029 61.3589 27.192C61.6001 26.981 61.8838 26.8223 62.1915 26.7262C62.4991 26.6302 62.8239 26.5988 63.1447 26.6343C63.4655 26.6697 63.7751 26.7712 64.0534 26.9321C65.703 27.9508 65.8705 31.3973 65.4426 33.0321C65.4426 33.1419 64.9278 34.4047 64.6859 35.0025L64.779 35.0635C65.9538 33.7666 67.0102 32.3704 67.9357 30.891C68.4566 30.0797 68.9031 29.2806 69.3248 28.4937C68.8039 28.1643 66.4534 26.6331 65.7154 25.5168C64.9774 24.4005 64.4193 22.8877 64.8844 21.6189C64.9841 21.3164 65.1474 21.038 65.3638 20.8018C65.5802 20.5656 65.8447 20.3769 66.1402 20.248C66.4357 20.119 66.7555 20.0528 67.0787 20.0536C67.402 20.0544 67.7214 20.1221 68.0163 20.2525C69.7714 21.0882 70.3171 24.5225 70.0752 26.1878C70.0752 26.2793 69.8272 27.2005 69.6473 27.8654C69.8272 27.5055 70.0256 27.1395 70.1931 26.7918C70.8133 25.4924 71.3404 24.2602 71.7745 23.1317C72.0226 22.5217 72.2272 21.9422 72.3947 21.4054C72.0536 20.7954 70.7264 18.4529 70.5962 17.1353C70.466 15.8177 70.6768 14.2195 71.6877 13.3044C71.9179 13.0816 72.1931 12.909 72.4956 12.7977C72.7981 12.6864 73.121 12.6391 73.4433 12.6586C73.7656 12.6782 74.0801 12.7643 74.3664 12.9113C74.6527 13.0583 74.9043 13.2629 75.1048 13.5118C76.2708 15.043 75.1607 18.3187 74.156 19.7095C74.0692 19.8315 72.4877 21.5396 72.4691 21.5396V21.503C72.2955 22.0215 72.1094 22.5766 71.8861 23.1744C71.4768 24.2846 70.9993 25.529 70.3853 26.8345C69.7363 28.2628 69.0054 29.6539 68.1961 31.0008C67.293 32.5117 66.2553 33.9406 65.0953 35.2709L65.0518 35.3197C65.5356 35.0269 66.9124 34.2461 67.0302 34.1973C68.6302 33.5263 72.1156 33.1481 73.3932 34.5877C73.5988 34.8327 73.7497 35.1175 73.836 35.4237C73.9223 35.7298 73.9421 36.0504 73.8942 36.3646C73.8462 36.6787 73.7315 36.9795 73.5576 37.2472C73.3836 37.5149 73.1543 37.7435 72.8846 37.9183C71.7621 38.6991 70.0814 38.5283 68.8411 38.1623C67.4457 37.7231 65.1201 35.6369 64.9092 35.4661C63.6979 36.7953 62.3967 38.0426 61.0145 39.1993C60.2145 39.8765 59.3835 40.5353 58.5338 41.188C58.9617 40.944 59.3463 40.7305 59.4021 40.7061C60.9959 40.0351 64.4813 39.6568 65.7588 41.0965C65.9654 41.3411 66.1171 41.6259 66.204 41.9322C66.2908 42.2385 66.3109 42.5594 66.2629 42.8738C66.2149 43.1883 66.0998 43.4892 65.9253 43.7569C65.7508 44.0246 65.5208 44.253 65.2503 44.4271C64.134 45.2079 62.4471 45.0371 61.213 44.6711C59.9788 44.3051 57.9137 42.5361 57.3803 42.0664C57.0516 42.3104 56.7601 42.5605 56.4066 42.8106C54.85 43.9818 53.3058 45.1469 51.7863 46.3426C51.2592 46.7574 50.7569 47.1905 50.2483 47.6236L51.0049 47.2088C52.5988 46.5378 56.0841 46.1534 57.3617 47.5931C57.5675 47.8386 57.7184 48.1239 57.8048 48.4305C57.8912 48.7371 57.911 49.0582 57.863 49.3729C57.8151 49.6875 57.7004 49.9887 57.5264 50.257C57.3524 50.5252 57.1231 50.7544 56.8532 50.9298C55.7368 51.7106 54.05 51.5398 52.8158 51.1677C51.5817 50.7956 49.715 49.2035 49.0948 48.6484C48.5925 49.1059 48.0839 49.5634 47.6188 50.027C47.3025 50.3503 46.9986 50.637 46.6885 50.9847L45.7955 51.9729C45.2559 52.6256 44.6916 53.2906 44.1768 53.9372C43.8171 54.3825 43.4822 54.8156 43.1473 55.2548C43.6621 54.8278 44.704 54.0348 44.797 53.9616C46.2668 53.0588 49.6592 52.1315 51.1414 53.4004C51.3816 53.6126 51.5737 53.8722 51.7052 54.1623C51.8367 54.4523 51.9047 54.7664 51.9047 55.084C51.9047 55.4016 51.8367 55.7156 51.7052 56.0057C51.5737 56.2958 51.3816 56.5554 51.1414 56.7676C50.1491 57.707 48.4622 57.8046 47.1847 57.6094C45.7707 57.3898 43.2156 55.7794 42.8993 55.5476C42.3411 56.2735 41.8078 56.975 41.3116 57.6521C39.5938 59.9885 38.2542 62.0015 37.3363 63.4167L37.2433 63.5631L36.0526 62.9958L36.2386 62.7152C37.1999 61.3 38.6015 59.2992 40.3876 56.9811C40.9519 56.243 41.5659 55.4683 42.2047 54.6814C41.5404 53.9674 40.9191 53.2158 40.3442 52.4304C38.9736 52.9612 36.1332 52.9794 35.7611 52.9794C35.7053 53.8823 35.6557 54.7668 35.6184 55.5964C35.4944 58.4756 35.5068 60.8791 35.5378 62.5627V62.7579L34.2293 62.1479C34.2293 60.4765 34.2975 58.2194 34.4711 55.5476C34.5269 54.6326 34.6076 53.6505 34.7006 52.644C34.3347 52.5525 31.3765 51.8082 30.2602 50.9298C29.2493 50.1307 28.1826 48.8436 28.2198 47.4894C28.2173 47.1717 28.2829 46.857 28.4122 46.5659C28.5415 46.2748 28.7317 46.0137 28.9704 45.7996C29.209 45.5856 29.4909 45.4233 29.7975 45.3235C30.1041 45.2237 30.4287 45.1884 30.7501 45.2201C32.6788 45.4641 34.2975 48.5264 34.6138 50.2039C34.6138 50.3076 34.713 51.4239 34.7502 52.0949C34.7936 51.6862 34.8246 51.2836 34.8742 50.8749C34.9549 50.0392 35.0665 49.2096 35.1843 48.3129C35.2525 47.8798 35.327 47.4467 35.3952 47.0075C35.4634 46.5683 35.5812 46.1168 35.6743 45.6654C35.9099 44.6284 36.1952 43.5853 36.5115 42.5422C35.7673 42.469 33.1316 42.164 32.0028 41.5235C30.8741 40.883 29.6214 39.7728 29.4539 38.4307C29.4021 38.1168 29.4181 37.7957 29.5009 37.4883C29.5837 37.1808 29.7314 36.894 29.9344 36.6465C30.1375 36.3991 30.3913 36.1964 30.6793 36.0519C30.9673 35.9074 31.283 35.8241 31.6059 35.8077C33.5471 35.765 35.6184 38.5466 36.189 40.1632C36.2262 40.2608 36.5053 41.4625 36.6479 42.1274C36.8402 41.5174 37.0262 40.8769 37.2681 40.2486C37.8883 38.4185 38.5891 36.6312 39.2713 34.8195C39.4821 34.2644 39.6806 33.7093 39.8914 33.1542C39.6248 33.1542 36.4805 32.8308 35.2153 32.1171C34.0928 31.5071 32.8401 30.3664 32.6664 29.0244C32.6156 28.7106 32.6323 28.3898 32.7155 28.0828C32.7987 27.7758 32.9465 27.4894 33.1493 27.2421C33.3522 26.9948 33.6056 26.7922 33.8931 26.6474C34.1806 26.5026 34.4959 26.4187 34.8184 26.4013C36.7658 26.3586 38.8371 29.1403 39.4077 30.7568C39.4511 30.8788 39.848 32.5868 39.9286 33.0504C40.3752 31.8304 40.8155 30.6104 41.169 29.3904C41.6935 27.7433 42.1078 26.0642 42.4093 24.3639C42.2853 24.3639 39.0046 24.0589 37.7084 23.3269C36.5797 22.7169 35.327 21.5762 35.1595 20.2342C35.1076 19.9206 35.1236 19.5997 35.2065 19.2926C35.2893 18.9855 35.4371 18.6991 35.6403 18.4521C35.8434 18.2051 36.0973 18.003 36.3853 17.8591C36.6733 17.7153 36.9889 17.6328 37.3115 17.6172C39.2527 17.5684 41.324 20.3501 41.8946 21.9666C41.9318 22.0703 42.2419 23.3879 42.3721 24.0223H42.4776C42.7337 22.3041 42.8333 20.5668 42.7752 18.8311C42.7752 17.8734 42.6822 16.9645 42.5892 16.08C41.969 16.08 39.1534 16.08 37.9131 15.5493C36.6727 15.0186 35.3518 14.067 35.0293 12.7554C34.9433 12.4482 34.9242 12.1266 34.9733 11.8116C35.0223 11.4966 35.1385 11.1954 35.3141 10.9276C35.4898 10.6598 35.7209 10.4316 35.9924 10.2577C36.264 10.0839 36.5698 9.96844 36.8898 9.91889C38.8185 9.65659 41.1876 12.2064 41.938 13.7437C41.9752 13.8291 42.2977 14.7258 42.5148 15.3846C42.4714 14.982 42.4279 14.5672 42.3721 14.1646C42.1799 12.731 41.907 11.4317 41.6589 10.2788C41.5101 9.62609 41.3674 9.05878 41.2248 8.49147C40.6046 8.18647 38.1736 6.92985 37.3425 5.91723C36.5115 4.90462 35.7673 3.43449 36.1022 2.12907C36.1763 1.8208 36.3154 1.53127 36.5104 1.2792C36.7055 1.02714 36.9522 0.818159 37.2345 0.665786C37.5169 0.513413 37.8286 0.42104 38.1495 0.394643C38.4705 0.368247 38.7935 0.408415 39.0976 0.512548Z" fill="#407BFF"/>
<path d="M74.249 29.9699C72.7296 29.9089 69.6908 28.3778 69.6908 28.3778C69.6908 28.3778 71.3218 26.7125 71.4396 26.621C72.7978 25.5595 76.0599 24.2846 77.6786 25.346C77.9432 25.5284 78.1657 25.7636 78.3314 26.0363C78.4972 26.3091 78.6026 26.6132 78.6407 26.9287C78.6787 27.2443 78.6486 27.5642 78.5523 27.8675C78.4559 28.1708 78.2956 28.4507 78.0817 28.6889C77.2135 29.732 75.5452 30.0248 74.249 29.9699Z" fill="#407BFF"/>
<g opacity="0.5">
<path d="M42.8621 15.8116C42.8249 15.8116 43.2962 13.5363 43.3396 13.3716C43.873 11.7428 45.8823 8.91238 47.8235 8.91848C48.1468 8.92745 48.4646 9.00338 48.7561 9.14133C49.0476 9.27927 49.3063 9.47613 49.5152 9.71905C49.7241 9.96197 49.8786 10.2455 49.9686 10.5511C50.0586 10.8567 50.0821 11.1776 50.0375 11.4927C49.8948 12.8347 48.6669 13.9816 47.5568 14.6404C46.2544 15.4395 42.8621 15.8116 42.8621 15.8116Z" fill="white"/>
<path d="M39.0976 0.512548C40.9581 1.15916 41.8388 4.48981 41.7768 6.19783C41.7768 6.34424 41.4295 8.63787 41.3985 8.63787H41.3612C41.5039 9.16248 41.6589 9.72979 41.814 10.352C42.0868 11.4988 42.3845 12.792 42.614 14.2317C42.8801 15.7738 43.054 17.33 43.1349 18.8921C43.2339 20.6426 43.1737 22.3983 42.9551 24.1382C42.9522 24.1584 42.9522 24.179 42.9551 24.1992C43.197 23.6929 43.9164 22.2899 43.9784 22.1923C44.9334 20.7649 47.625 18.5322 49.5041 19.0629C49.8127 19.1555 50.0979 19.311 50.3412 19.5193C50.5845 19.7276 50.7804 19.984 50.9162 20.2718C51.052 20.5596 51.1245 20.8723 51.1291 21.1896C51.1337 21.5068 51.0703 21.8215 50.9429 22.113C50.4468 23.3696 48.9584 24.1565 47.7118 24.5042C46.304 24.9007 43.1659 24.4371 42.9179 24.3944C42.6527 26.1604 42.2673 27.9069 41.7644 29.6222C41.4749 30.6226 41.1607 31.621 40.8217 32.6173C41.0388 32.1842 41.2434 31.7999 41.2744 31.7511C42.2295 30.3176 44.9272 28.0911 46.8002 28.6218C47.1087 28.7143 47.3939 28.8698 47.6372 29.0781C47.8806 29.2864 48.0765 29.5429 48.2123 29.8307C48.348 30.1185 48.4206 30.4312 48.4252 30.7484C48.4298 31.0657 48.3663 31.3803 48.239 31.6718C47.7428 32.9284 46.2544 33.7154 45.0079 34.0631C43.7613 34.4108 41.0574 34.0631 40.3504 33.9716L39.9597 35.1184C39.3395 36.9484 38.6635 38.7784 38.0991 40.5719C37.8945 41.1819 37.7146 41.8407 37.5348 42.4751C37.7332 42.0908 37.9007 41.7675 37.9317 41.7187C38.8806 40.2913 41.5783 38.0586 43.4512 38.5893C43.7592 38.6829 44.0438 38.8389 44.2867 39.0472C44.5297 39.2556 44.7255 39.5117 44.8616 39.799C44.9978 40.0864 45.0712 40.3986 45.0772 40.7156C45.0831 41.0326 45.0215 41.3473 44.8962 41.6394C44.4001 42.9021 42.9055 43.6829 41.6589 44.0367C40.4124 44.3905 37.9751 44.0794 37.1317 43.9635C36.9642 44.6162 36.803 45.2689 36.6727 45.9094C36.5921 46.3547 36.4867 46.7696 36.4309 47.2149L36.2448 48.5264C36.158 49.3621 36.0588 50.2222 35.9968 51.0396C35.9471 51.6069 35.9099 52.1498 35.8727 52.6989C36.0712 52.0888 36.4929 50.8261 36.4929 50.7285C37.1797 49.3865 38.2045 48.2398 39.4697 47.3979C39.5372 47.2424 39.6225 47.095 39.724 46.9587C39.8996 46.6921 40.1303 46.4651 40.4012 46.2923C40.6721 46.1195 40.9771 46.0049 41.2961 45.956C41.6151 45.907 41.941 45.9249 42.2525 46.0083C42.5641 46.0917 42.8542 46.2389 43.1039 46.4401C44.5799 47.6907 44.2078 51.1189 43.5318 52.6927C43.4946 52.7842 42.9427 53.742 42.5892 54.3459C42.8559 54.0226 43.1039 53.7054 43.383 53.3821C43.9226 52.7293 44.4807 52.0949 45.0761 51.4117L45.9877 50.4418C46.2854 50.1124 46.6451 49.8318 46.9738 49.4719C47.749 48.7338 48.5739 48.0201 49.4235 47.3186C48.8467 46.855 46.8126 45.1713 46.2296 44.0245C45.6466 42.8777 45.2311 41.2734 45.8389 40.0595C45.9726 39.77 46.1666 39.5113 46.4084 39.3003C46.6502 39.0893 46.9344 38.9306 47.2425 38.8346C47.5507 38.7385 47.8759 38.7073 48.1971 38.7428C48.5184 38.7783 48.8284 38.8798 49.1072 39.0407C50.7507 40.0595 50.9181 43.506 50.4902 45.1408C50.4902 45.2445 50.0189 46.3975 49.7646 47.0258C50.2793 46.611 50.7879 46.1961 51.3212 45.8057C52.8593 44.6406 54.4531 43.4999 56.0345 42.3592L57.4795 41.31C57.2749 41.1453 54.819 39.1932 54.1616 37.9061C53.5848 36.7654 53.1631 35.155 53.7709 33.9472C53.9038 33.657 54.0974 33.3977 54.3391 33.1861C54.5808 32.9746 54.8652 32.8155 55.1736 32.7194C55.482 32.6233 55.8076 32.5922 56.1291 32.6282C56.4505 32.6642 56.7607 32.7665 57.0392 32.9284C58.6889 33.9411 58.8501 37.3876 58.4222 39.0285C58.3912 39.1505 57.7524 40.8098 57.5726 41.2246C58.6269 40.4499 59.6749 39.6691 60.6734 38.8516C62.032 37.7623 63.3164 36.5865 64.5185 35.3319C64.4255 35.2526 61.8518 33.2274 61.182 31.9158C60.599 30.7751 60.1835 29.1586 60.7913 27.9508C60.9243 27.6615 61.1177 27.4029 61.3589 27.192C61.6001 26.981 61.8838 26.8223 62.1915 26.7262C62.4991 26.6302 62.8239 26.5988 63.1447 26.6343C63.4655 26.6697 63.7751 26.7712 64.0534 26.9321C65.703 27.9508 65.8705 31.3973 65.4426 33.0321C65.4426 33.1419 64.9278 34.4047 64.6859 35.0025L64.779 35.0635C65.9538 33.7666 67.0102 32.3704 67.9357 30.891C68.4566 30.0797 68.9031 29.2806 69.3248 28.4937C68.8039 28.1643 66.4534 26.6331 65.7154 25.5168C64.9774 24.4005 64.4193 22.8877 64.8844 21.6189C64.9841 21.3164 65.1474 21.038 65.3638 20.8018C65.5802 20.5656 65.8447 20.3769 66.1402 20.248C66.4357 20.119 66.7555 20.0528 67.0787 20.0536C67.402 20.0544 67.7214 20.1221 68.0163 20.2525C69.7714 21.0882 70.3171 24.5225 70.0752 26.1878C70.0752 26.2793 69.8272 27.2005 69.6473 27.8654C69.8272 27.5055 70.0256 27.1395 70.1931 26.7918C70.8133 25.4924 71.3404 24.2602 71.7745 23.1317C72.0226 22.5217 72.2272 21.9422 72.3947 21.4054C72.0536 20.7954 70.7264 18.4529 70.5962 17.1353C70.466 15.8177 70.6768 14.2195 71.6877 13.3044C71.9179 13.0816 72.1931 12.909 72.4956 12.7977C72.7981 12.6864 73.121 12.6391 73.4433 12.6586C73.7656 12.6782 74.0801 12.7643 74.3664 12.9113C74.6527 13.0583 74.9043 13.2629 75.1048 13.5118C76.2708 15.043 75.1607 18.3187 74.156 19.7095C74.0692 19.8315 72.4877 21.5396 72.4691 21.5396V21.503C72.2955 22.0215 72.1094 22.5766 71.8861 23.1744C71.4768 24.2846 70.9993 25.529 70.3853 26.8345C69.7363 28.2628 69.0054 29.6539 68.1961 31.0008C67.293 32.5117 66.2553 33.9406 65.0953 35.2709L65.0518 35.3197C65.5356 35.0269 66.9124 34.2461 67.0302 34.1973C68.6302 33.5263 72.1156 33.1481 73.3932 34.5877C73.5988 34.8327 73.7497 35.1175 73.836 35.4237C73.9223 35.7298 73.9421 36.0504 73.8942 36.3646C73.8462 36.6787 73.7315 36.9795 73.5576 37.2472C73.3836 37.5149 73.1543 37.7435 72.8846 37.9183C71.7621 38.6991 70.0814 38.5283 68.8411 38.1623C67.4457 37.7231 65.1201 35.6369 64.9092 35.4661C63.6979 36.7953 62.3967 38.0426 61.0145 39.1993C60.2145 39.8765 59.3835 40.5353 58.5338 41.188C58.9617 40.944 59.3463 40.7305 59.4021 40.7061C60.9959 40.0351 64.4813 39.6568 65.7588 41.0965C65.9654 41.3411 66.1171 41.6259 66.204 41.9322C66.2908 42.2385 66.3109 42.5594 66.2629 42.8738C66.2149 43.1883 66.0998 43.4892 65.9253 43.7569C65.7508 44.0246 65.5208 44.253 65.2503 44.4271C64.134 45.2079 62.4471 45.0371 61.213 44.6711C59.9788 44.3051 57.9137 42.5361 57.3803 42.0664C57.0516 42.3104 56.7601 42.5605 56.4066 42.8106C54.85 43.9818 53.3058 45.1469 51.7863 46.3426C51.2592 46.7574 50.7569 47.1905 50.2483 47.6236L51.0049 47.2088C52.5988 46.5378 56.0841 46.1534 57.3617 47.5931C57.5675 47.8386 57.7184 48.1239 57.8048 48.4305C57.8912 48.7371 57.911 49.0582 57.863 49.3729C57.8151 49.6875 57.7004 49.9887 57.5264 50.257C57.3524 50.5252 57.1231 50.7544 56.8532 50.9298C55.7368 51.7106 54.05 51.5398 52.8158 51.1677C51.5817 50.7956 49.715 49.2035 49.0948 48.6484C48.5925 49.1059 48.0839 49.5634 47.6188 50.027C47.3025 50.3503 46.9986 50.637 46.6885 50.9847L45.7955 51.9729C45.2559 52.6256 44.6916 53.2906 44.1768 53.9372C43.8171 54.3825 43.4822 54.8156 43.1473 55.2548C43.6621 54.8278 44.704 54.0348 44.797 53.9616C46.2668 53.0588 49.6592 52.1315 51.1414 53.4004C51.3816 53.6126 51.5737 53.8722 51.7052 54.1623C51.8367 54.4523 51.9047 54.7664 51.9047 55.084C51.9047 55.4016 51.8367 55.7156 51.7052 56.0057C51.5737 56.2958 51.3816 56.5554 51.1414 56.7676C50.1491 57.707 48.4622 57.8046 47.1847 57.6094C45.7707 57.3898 43.2156 55.7794 42.8993 55.5476C42.3411 56.2735 41.8078 56.975 41.3116 57.6521C39.5938 59.9885 38.2542 62.0015 37.3363 63.4167L37.2433 63.5631L36.0526 62.9958L36.2386 62.7152C37.1999 61.3 38.6015 59.2992 40.3876 56.9811C40.9519 56.243 41.5659 55.4683 42.2047 54.6814C41.5404 53.9674 40.9191 53.2158 40.3442 52.4304C38.9736 52.9612 36.1332 52.9794 35.7611 52.9794C35.7053 53.8823 35.6557 54.7668 35.6184 55.5964C35.4944 58.4756 35.5068 60.8791 35.5378 62.5627V62.7579L34.2293 62.1479C34.2293 60.4765 34.2975 58.2194 34.4711 55.5476C34.5269 54.6326 34.6076 53.6505 34.7006 52.644C34.3347 52.5525 31.3765 51.8082 30.2602 50.9298C29.2493 50.1307 28.1826 48.8436 28.2198 47.4894C28.2173 47.1717 28.2829 46.857 28.4122 46.5659C28.5415 46.2748 28.7317 46.0137 28.9704 45.7996C29.209 45.5856 29.4909 45.4233 29.7975 45.3235C30.1041 45.2237 30.4287 45.1884 30.7501 45.2201C32.6788 45.4641 34.2975 48.5264 34.6138 50.2039C34.6138 50.3076 34.713 51.4239 34.7502 52.0949C34.7936 51.6862 34.8246 51.2836 34.8742 50.8749C34.9549 50.0392 35.0665 49.2096 35.1843 48.3129C35.2525 47.8798 35.327 47.4467 35.3952 47.0075C35.4634 46.5683 35.5812 46.1168 35.6743 45.6654C35.9099 44.6284 36.1952 43.5853 36.5115 42.5422C35.7673 42.469 33.1316 42.164 32.0028 41.5235C30.8741 40.883 29.6214 39.7728 29.4539 38.4307C29.4021 38.1168 29.4181 37.7957 29.5009 37.4883C29.5837 37.1808 29.7314 36.894 29.9344 36.6465C30.1375 36.3991 30.3913 36.1964 30.6793 36.0519C30.9673 35.9074 31.283 35.8241 31.6059 35.8077C33.5471 35.765 35.6184 38.5466 36.189 40.1632C36.2262 40.2608 36.5053 41.4625 36.6479 42.1274C36.8402 41.5174 37.0262 40.8769 37.2681 40.2486C37.8883 38.4185 38.5891 36.6312 39.2713 34.8195C39.4821 34.2644 39.6806 33.7093 39.8914 33.1542C39.6248 33.1542 36.4805 32.8308 35.2153 32.1171C34.0928 31.5071 32.8401 30.3664 32.6664 29.0244C32.6156 28.7106 32.6323 28.3898 32.7155 28.0828C32.7987 27.7758 32.9465 27.4894 33.1493 27.2421C33.3522 26.9948 33.6056 26.7922 33.8931 26.6474C34.1806 26.5026 34.4959 26.4187 34.8184 26.4013C36.7658 26.3586 38.8371 29.1403 39.4077 30.7568C39.4511 30.8788 39.848 32.5868 39.9286 33.0504C40.3752 31.8304 40.8155 30.6104 41.169 29.3904C41.6935 27.7433 42.1078 26.0642 42.4093 24.3639C42.2853 24.3639 39.0046 24.0589 37.7084 23.3269C36.5797 22.7169 35.327 21.5762 35.1595 20.2342C35.1076 19.9206 35.1236 19.5997 35.2065 19.2926C35.2893 18.9855 35.4371 18.6991 35.6403 18.4521C35.8434 18.2051 36.0973 18.003 36.3853 17.8591C36.6733 17.7153 36.9889 17.6328 37.3115 17.6172C39.2527 17.5684 41.324 20.3501 41.8946 21.9666C41.9318 22.0703 42.2419 23.3879 42.3721 24.0223H42.4776C42.7337 22.3041 42.8333 20.5668 42.7752 18.8311C42.7752 17.8734 42.6822 16.9645 42.5892 16.08C41.969 16.08 39.1534 16.08 37.9131 15.5493C36.6727 15.0186 35.3518 14.067 35.0293 12.7554C34.9433 12.4482 34.9242 12.1266 34.9733 11.8116C35.0223 11.4966 35.1385 11.1954 35.3141 10.9276C35.4898 10.6598 35.7209 10.4316 35.9924 10.2577C36.264 10.0839 36.5698 9.96844 36.8898 9.91889C38.8185 9.65659 41.1876 12.2064 41.938 13.7437C41.9752 13.8291 42.2977 14.7258 42.5148 15.3846C42.4714 14.982 42.4279 14.5672 42.3721 14.1646C42.1799 12.731 41.907 11.4317 41.6589 10.2788C41.5101 9.62609 41.3674 9.05878 41.2248 8.49147C40.6046 8.18647 38.1736 6.92985 37.3425 5.91723C36.5115 4.90462 35.7673 3.43449 36.1022 2.12907C36.1763 1.8208 36.3154 1.53127 36.5104 1.2792C36.7055 1.02714 36.9522 0.818159 37.2345 0.665786C37.5169 0.513413 37.8286 0.42104 38.1495 0.394643C38.4705 0.368247 38.7935 0.408415 39.0976 0.512548Z" fill="white"/>
<path d="M74.249 29.9699C72.7296 29.9089 69.6908 28.3778 69.6908 28.3778C69.6908 28.3778 71.3218 26.7125 71.4396 26.621C72.7978 25.5595 76.0599 24.2846 77.6786 25.346C77.9432 25.5284 78.1657 25.7636 78.3314 26.0363C78.4972 26.3091 78.6026 26.6132 78.6407 26.9287C78.6787 27.2443 78.6486 27.5642 78.5523 27.8675C78.4559 28.1708 78.2956 28.4507 78.0817 28.6889C77.2135 29.732 75.5452 30.0248 74.249 29.9699Z" fill="white"/>
</g>
<path d="M56.5059 67.4001C56.5059 67.4001 47.2839 45.5373 42.1241 46.4889C36.9642 47.4406 50.9739 81.3449 50.9739 81.3449C50.9739 81.3449 34.7502 51.2409 23.6863 51.2409C12.6224 51.2409 27.7423 84.5108 41.7892 95.6008C41.7892 95.6008 19.6614 72.152 6.75561 77.2212C-6.15018 82.2904 32.5362 106.044 32.5362 106.044C32.5362 106.044 10.0425 99.0839 12.6411 104.476C15.2396 109.869 22.2289 110.808 22.2289 110.808L28.1454 112.077H60.3944L65.3557 110.18C65.3557 110.18 86.0075 100.036 80.4756 95.918C74.9436 91.8004 62.7758 100.67 62.7758 100.67C62.7758 100.67 83.7935 77.8556 79.7375 69.3033C75.6816 60.751 57.6098 84.828 57.6098 84.828C57.6098 84.828 72.3637 54.0897 69.3931 48.7033C66.4224 43.3169 56.5059 67.4001 56.5059 67.4001Z" fill="#407BFF"/>
<path opacity="0.4" d="M56.5059 67.4001C56.5059 67.4001 47.2839 45.5373 42.1241 46.4889C36.9642 47.4406 50.9739 81.3449 50.9739 81.3449C50.9739 81.3449 34.7502 51.2409 23.6863 51.2409C12.6224 51.2409 27.7423 84.5108 41.7892 95.6008C41.7892 95.6008 19.6614 72.152 6.75561 77.2212C-6.15018 82.2904 32.5362 106.044 32.5362 106.044C32.5362 106.044 10.0425 99.0839 12.6411 104.476C15.2396 109.869 22.2289 110.808 22.2289 110.808L31.8664 112.077H57.9137L65.3557 110.18C65.3557 110.18 86.0075 100.036 80.4756 95.918C74.9436 91.8004 62.7758 100.67 62.7758 100.67C62.7758 100.67 83.7935 77.8556 79.7375 69.3033C75.6816 60.751 57.6098 84.828 57.6098 84.828C57.6098 84.828 72.3637 54.0897 69.3931 48.7033C66.4224 43.3169 56.5059 67.4001 56.5059 67.4001Z" fill="white"/>
<path d="M59.4579 68.553C51.346 92.1298 51.346 108.814 51.346 108.814C51.346 108.814 60.9339 109.18 70.8877 101.92" stroke="#263238" stroke-linecap="round" stroke-linejoin="round"/>
<path d="M55.433 81.2473C53.7592 74.1994 51.5386 67.2881 48.7909 60.5741" stroke="#263238" stroke-linecap="round" stroke-linejoin="round"/>
<path d="M31.4323 67.4611L52.0778 97.5711C52.0778 97.5711 66.0937 85.981 70.8877 79.4356" stroke="#263238" stroke-linecap="round" stroke-linejoin="round"/>
<path d="M51.7119 104.824C51.7119 104.824 29.9562 94.6675 21.1064 88.8663" stroke="#263238" stroke-linecap="round" stroke-linejoin="round"/>
<path d="M117.208 18.5871H112.725V202.377H117.208V18.5871Z" fill="#C2C2C2" stroke="#ABABAB" stroke-linecap="round" stroke-linejoin="round"/>
<path d="M36.5487 18.5871H32.0649V202.377H36.5487V18.5871Z" fill="#C2C2C2" stroke="#ABABAB" stroke-linecap="round" stroke-linejoin="round"/>
<path d="M76.8785 18.5871H72.3947V202.377H76.8785V18.5871Z" fill="#C2C2C2" stroke="#ABABAB" stroke-linecap="round" stroke-linejoin="round"/>
<path d="M157.532 18.5871H153.048V202.377H157.532V18.5871Z" fill="#C2C2C2" stroke="#ABABAB" stroke-linecap="round" stroke-linejoin="round"/>
<path d="M156.186 24.3151H30.6198V32.6905H156.186V24.3151Z" fill="#C2C2C2" stroke="#ABABAB" stroke-linecap="round" stroke-linejoin="round"/>
<path d="M156.186 24.3151H75.3777V32.6905H156.186V24.3151Z" fill="#A6A6A6" stroke="#ABABAB" stroke-linecap="round" stroke-linejoin="round"/>
<path d="M156.186 108.649H30.6198V117.024H156.186V108.649Z" fill="#C2C2C2" stroke="#ABABAB" stroke-linecap="round" stroke-linejoin="round"/>
<path d="M156.186 108.649H75.3777V117.024H156.186V108.649Z" fill="#A6A6A6" stroke="#ABABAB" stroke-linecap="round" stroke-linejoin="round"/>
<path d="M156.186 192.977H30.6198V201.352H156.186V192.977Z" fill="#C2C2C2" stroke="#ABABAB" stroke-linecap="round" stroke-linejoin="round"/>
<path d="M156.186 192.977H75.3777V201.352H156.186V192.977Z" fill="#A6A6A6" stroke="#ABABAB" stroke-linecap="round" stroke-linejoin="round"/>
<path d="M75.3963 148.013H9.68283V202.31H75.3963V148.013Z" fill="#407BFF"/>
<mask id="mask0_14_742" style="mask-type:luminance" maskUnits="userSpaceOnUse" x="9" y="148" width="67" height="55">
<path d="M75.3963 148.013H9.68283V202.31H75.3963V148.013Z" fill="white"/>
</mask>
<g mask="url(#mask0_14_742)">
<path opacity="0.6" d="M75.3963 148.013H9.68283V202.31H75.3963V148.013Z" fill="white" stroke="#696969" stroke-linecap="round" stroke-linejoin="round"/>
</g>
<path d="M75.3963 148.013H9.68283V202.31H75.3963V148.013Z" stroke="#696969" stroke-linecap="round" stroke-linejoin="round"/>
<path d="M75.3963 148.013H53.56V202.31H75.3963V148.013Z" fill="#407BFF"/>
<mask id="mask1_14_742" style="mask-type:luminance" maskUnits="userSpaceOnUse" x="53" y="148" width="23" height="55">
<path d="M75.3963 148.013H53.56V202.31H75.3963V148.013Z" fill="white"/>
</mask>
<g mask="url(#mask1_14_742)">
<path opacity="0.39" d="M75.3963 148.013H53.56V202.31H75.3963V148.013Z" fill="white" stroke="#696969" stroke-linecap="round" stroke-linejoin="round"/>
</g>
<path d="M75.3963 148.013H53.56V202.31H75.3963V148.013Z" stroke="#696969" stroke-linecap="round" stroke-linejoin="round"/>
<path d="M64.7046 148.159V202.377" stroke="#696969" stroke-linecap="round" stroke-linejoin="round"/>
<path d="M78.7143 93.8013H13.0008V148.098H78.7143V93.8013Z" fill="#407BFF"/>
<mask id="mask2_14_742" style="mask-type:luminance" maskUnits="userSpaceOnUse" x="13" y="93" width="66" height="56">
<path d="M78.7143 93.8013H13.0008V148.098H78.7143V93.8013Z" fill="white"/>
</mask>
<g mask="url(#mask2_14_742)">
<path opacity="0.6" d="M78.7143 93.8013H13.0008V148.098H78.7143V93.8013Z" fill="white" stroke="#696969" stroke-linecap="round" stroke-linejoin="round"/>
</g>
<path d="M78.7143 93.8013H13.0008V148.098H78.7143V93.8013Z" stroke="#696969" stroke-linecap="round" stroke-linejoin="round"/>
<path d="M78.7142 93.8013H56.8779V148.098H78.7142V93.8013Z" fill="#407BFF"/>
<mask id="mask3_14_742" style="mask-type:luminance" maskUnits="userSpaceOnUse" x="56" y="93" width="23" height="56">
<path d="M78.7142 93.8013H56.8779V148.098H78.7142V93.8013Z" fill="white"/>
</mask>
<g mask="url(#mask3_14_742)">
<path opacity="0.39" d="M78.7142 93.8013H56.8779V148.098H78.7142V93.8013Z" fill="white" stroke="#696969" stroke-linecap="round" stroke-linejoin="round"/>
</g>
<path d="M78.7142 93.8013H56.8779V148.098H78.7142V93.8013Z" stroke="#696969" stroke-linecap="round" stroke-linejoin="round"/>
<path d="M68.0225 93.9477V148.165" stroke="#696969" stroke-linecap="round" stroke-linejoin="round"/>
<path d="M249.721 148.013H184.007V202.31H249.721V148.013Z" fill="#407BFF"/>
<mask id="mask4_14_742" style="mask-type:luminance" maskUnits="userSpaceOnUse" x="184" y="148" width="66" height="55">
<path d="M249.721 148.013H184.007V202.31H249.721V148.013Z" fill="white"/>
</mask>
<g mask="url(#mask4_14_742)">
<path opacity="0.6" d="M249.721 148.013H184.007V202.31H249.721V148.013Z" fill="white" stroke="#919191" stroke-linecap="round" stroke-linejoin="round"/>
</g>
<path d="M249.721 148.013H184.007V202.31H249.721V148.013Z" stroke="#919191" stroke-linecap="round" stroke-linejoin="round"/>
<path d="M249.721 148.013H227.884V202.31H249.721V148.013Z" fill="#407BFF"/>
<mask id="mask5_14_742" style="mask-type:luminance" maskUnits="userSpaceOnUse" x="227" y="148" width="23" height="55">
<path d="M249.721 148.013H227.884V202.31H249.721V148.013Z" fill="white"/>
</mask>
<g mask="url(#mask5_14_742)">
<path opacity="0.39" d="M249.721 148.013H227.884V202.31H249.721V148.013Z" fill="white" stroke="#919191" stroke-linecap="round" stroke-linejoin="round"/>
</g>
<path d="M249.721 148.013H227.884V202.31H249.721V148.013Z" stroke="#919191" stroke-linecap="round" stroke-linejoin="round"/>
<path d="M239.029 148.159V202.377" stroke="#919191" stroke-linecap="round" stroke-linejoin="round"/>
<path d="M249.721 93.661H184.007V147.958H249.721V93.661Z" fill="#407BFF"/>
<mask id="mask6_14_742" style="mask-type:luminance" maskUnits="userSpaceOnUse" x="184" y="93" width="66" height="55">
<path d="M249.721 93.661H184.007V147.958H249.721V93.661Z" fill="white"/>
</mask>
<g mask="url(#mask6_14_742)">
<path opacity="0.6" d="M249.721 93.661H184.007V147.958H249.721V93.661Z" fill="white" stroke="#919191" stroke-linecap="round" stroke-linejoin="round"/>
</g>
<path d="M249.721 93.661H184.007V147.958H249.721V93.661Z" stroke="#919191" stroke-linecap="round" stroke-linejoin="round"/>
<path d="M249.721 93.661H227.884V147.958H249.721V93.661Z" fill="#407BFF"/>
<mask id="mask7_14_742" style="mask-type:luminance" maskUnits="userSpaceOnUse" x="227" y="93" width="23" height="55">
<path d="M249.721 93.661H227.884V147.958H249.721V93.661Z" fill="white"/>
</mask>
<g mask="url(#mask7_14_742)">
<path opacity="0.39" d="M249.721 93.661H227.884V147.958H249.721V93.661Z" fill="white" stroke="#919191" stroke-linecap="round" stroke-linejoin="round"/>
</g>
<path d="M249.721 93.661H227.884V147.958H249.721V93.661Z" stroke="#919191" stroke-linecap="round" stroke-linejoin="round"/>
<path d="M239.029 93.8074V148.025" stroke="#919191" stroke-linecap="round" stroke-linejoin="round"/>
<path d="M243.947 48.7033H189.589V93.6183H243.947V48.7033Z" fill="#407BFF"/>
<mask id="mask8_14_742" style="mask-type:luminance" maskUnits="userSpaceOnUse" x="189" y="48" width="55" height="46">
<path d="M243.947 48.7033H189.589V93.6183H243.947V48.7033Z" fill="white"/>
</mask>
<g mask="url(#mask8_14_742)">
<path opacity="0.6" d="M243.947 48.7033H189.589V93.6183H243.947V48.7033Z" fill="white" stroke="#919191" stroke-linecap="round" stroke-linejoin="round"/>
</g>
<path d="M243.947 48.7033H189.589V93.6183H243.947V48.7033Z" stroke="#919191" stroke-linecap="round" stroke-linejoin="round"/>
<path d="M243.947 48.7033H225.887V93.6183H243.947V48.7033Z" fill="#407BFF"/>
<mask id="mask9_14_742" style="mask-type:luminance" maskUnits="userSpaceOnUse" x="225" y="48" width="19" height="46">
<path d="M243.947 48.7033H225.887V93.6183H243.947V48.7033Z" fill="white"/>
</mask>
<g mask="url(#mask9_14_742)">
<path opacity="0.39" d="M243.947 48.7033H225.887V93.6183H243.947V48.7033Z" fill="white" stroke="#919191" stroke-linecap="round" stroke-linejoin="round"/>
</g>
<path d="M243.947 48.7033H225.887V93.6183H243.947V48.7033Z" stroke="#919191" stroke-linecap="round" stroke-linejoin="round"/>
<path d="M235.103 48.8253V93.6732" stroke="#919191" stroke-linecap="round" stroke-linejoin="round"/>
<path d="M236.995 181.899H228.48V187.139H236.995V181.899Z" fill="white" stroke="#263238" stroke-linecap="round" stroke-linejoin="round"/>
<path d="M156.868 202.377C159.711 202.377 162.016 200.11 162.016 197.314C162.016 194.518 159.711 192.251 156.868 192.251C154.026 192.251 151.721 194.518 151.721 197.314C151.721 200.11 154.026 202.377 156.868 202.377Z" fill="#263238" stroke="#263238" stroke-linecap="round" stroke-linejoin="round"/>
<path d="M241.572 113.511H238.533V197.43H241.572V113.511Z" fill="#263238" stroke="#263238" stroke-linecap="round" stroke-linejoin="round"/>
<path d="M239.953 142.864L232.765 137.24C229.708 134.844 227.415 131.634 226.158 127.993C224.901 124.352 224.734 120.433 225.677 116.701C225.954 115.612 226.592 114.644 227.49 113.952C228.389 113.259 229.496 112.881 230.638 112.876H249.243C250.385 112.879 251.494 113.256 252.393 113.949C253.292 114.642 253.929 115.611 254.205 116.701C255.148 120.432 254.982 124.351 253.727 127.993C252.471 131.634 250.179 134.844 247.122 137.24L239.953 142.864ZM230.65 115.737C230.154 115.735 229.671 115.898 229.279 116.199C228.888 116.5 228.61 116.922 228.492 117.396C227.682 120.595 227.823 123.955 228.9 127.076C229.976 130.197 231.942 132.948 234.564 135.001L239.941 139.21L245.324 135.001C247.946 132.949 249.914 130.198 250.992 127.077C252.071 123.956 252.215 120.596 251.408 117.396C251.288 116.922 251.011 116.501 250.62 116.2C250.228 115.9 249.746 115.737 249.249 115.737H230.65Z" fill="#263238"/>
<path d="M222.111 184.522H128.012V195.295H222.111V184.522Z" fill="white"/>
<mask id="mask10_14_742" style="mask-type:luminance" maskUnits="userSpaceOnUse" x="128" y="184" width="95" height="12">
<path d="M222.111 184.522H128.012V195.295H222.111V184.522Z" fill="white"/>
</mask>
<g mask="url(#mask10_14_742)">
<path opacity="0.28" d="M222.111 184.522H128.012V195.295H222.111V184.522Z" fill="black" stroke="#263238" stroke-linecap="round" stroke-linejoin="round"/>
</g>
<path d="M222.111 184.522H128.012V195.295H222.111V184.522Z" stroke="#263238" stroke-linecap="round" stroke-linejoin="round"/>
<path d="M138.555 184.522H128.012V195.295H138.555V184.522Z" stroke="#263238" stroke-linecap="round" stroke-linejoin="round"/>
<path d="M222.104 184.522H211.561V195.295H222.104V184.522Z" stroke="#263238" stroke-linecap="round" stroke-linejoin="round"/>
<path d="M180.33 184.522H169.787V195.295H180.33V184.522Z" stroke="#263238" stroke-linecap="round" stroke-linejoin="round"/>
<path d="M222.111 195.295H228.598L236.709 164.971H230.222L222.111 195.295Z" fill="white" stroke="#263238" stroke-linecap="round" stroke-linejoin="round"/>
<path d="M244.313 177.739H235.798V191.305H244.313V177.739Z" fill="white" stroke="#263238" stroke-linecap="round" stroke-linejoin="round"/>
<path d="M237.968 202.377C237.486 202.369 237.025 202.177 236.684 201.841C236.342 201.505 236.147 201.052 236.139 200.577V193.825C236.147 193.35 236.342 192.897 236.684 192.561C237.025 192.225 237.486 192.033 237.968 192.025C238.451 192.033 238.912 192.225 239.253 192.561C239.595 192.897 239.79 193.35 239.798 193.825V200.596C239.785 201.067 239.588 201.516 239.247 201.848C238.906 202.18 238.448 202.369 237.968 202.377Z" fill="#263238"/>
<path d="M242.316 202.377C241.833 202.369 241.372 202.177 241.031 201.841C240.69 201.505 240.494 201.052 240.486 200.577V193.825C240.494 193.35 240.69 192.897 241.031 192.561C241.372 192.225 241.833 192.033 242.316 192.025C242.804 192.025 243.273 192.214 243.621 192.55C243.969 192.887 244.168 193.344 244.176 193.825V200.596C244.163 201.072 243.962 201.525 243.614 201.858C243.267 202.191 242.801 202.377 242.316 202.377Z" fill="#263238"/>
<path d="M1.3663 202.377H258" stroke="#263238" stroke-linecap="round" stroke-linejoin="round"/>
<path d="M89.9084 220C114.651 220 134.71 217.602 134.71 214.644C134.71 211.686 114.651 209.288 89.9084 209.288C65.1653 209.288 45.1071 211.686 45.1071 214.644C45.1071 217.602 65.1653 220 89.9084 220Z" fill="#407BFF"/>
<path opacity="0.5" d="M89.9084 220C114.651 220 134.71 217.602 134.71 214.644C134.71 211.686 114.651 209.288 89.9084 209.288C65.1653 209.288 45.1071 211.686 45.1071 214.644C45.1071 217.602 65.1653 220 89.9084 220Z" fill="white"/>
<path d="M182.618 214.626C182.618 216.102 172.615 217.298 160.292 217.298C147.969 217.298 137.966 216.078 137.966 214.626C137.966 213.174 147.963 211.96 160.292 211.96C172.621 211.96 182.618 213.174 182.618 214.626Z" fill="#407BFF"/>
<path opacity="0.5" d="M182.618 214.626C182.618 216.102 172.615 217.298 160.292 217.298C147.969 217.298 137.966 216.078 137.966 214.626C137.966 213.174 147.963 211.96 160.292 211.96C172.621 211.96 182.618 213.174 182.618 214.626Z" fill="white"/>
<path d="M98.8451 38.205C98.8451 38.205 95.3783 35.5271 91.403 36.863C87.4277 38.1989 84.4136 44.7138 83.3407 50.0087C82.2678 55.3036 78.1437 59.3174 79.136 65.5273C80.1282 71.7372 87.3036 72.7072 95.9674 73.6222C104.631 74.5372 109.332 73.5002 113.413 67.9003C117.494 62.3004 115.763 55.4866 113.351 49.4597C110.938 43.4328 106.92 37.839 103.577 36.802C100.234 35.765 98.8451 38.205 98.8451 38.205Z" fill="#263238" stroke="#263238" stroke-linecap="round" stroke-linejoin="round"/>
<path d="M84.519 70.0536C85.104 70.3123 85.7124 70.5166 86.3362 70.6636" stroke="white" stroke-linecap="round" stroke-linejoin="round"/>
<path d="M97.9768 42.5422C96.5638 45.6474 94.7729 48.5724 92.6433 51.2531C89.0959 55.7367 81.2507 59.9701 80.7484 64.6733C80.6677 65.303 80.7238 65.9424 80.913 66.5491C81.1022 67.1559 81.4203 67.7162 81.8461 68.1931" stroke="white" stroke-linecap="round" stroke-linejoin="round"/>
<path d="M112.371 65.0332C112.115 65.6237 111.786 66.1809 111.391 66.6925" stroke="white" stroke-linecap="round" stroke-linejoin="round"/>
<path d="M109.388 53.2479C109.388 53.2479 113.376 57.7741 112.991 62.6054" stroke="white" stroke-linecap="round" stroke-linejoin="round"/>
<path d="M97.2202 40.0472C95.666 39.8916 94.0965 40.1045 92.6431 40.6681C91.1897 41.2316 89.8947 42.1295 88.8665 43.2864C88.7238 43.445 88.5936 43.6036 88.4696 43.7622" stroke="white" stroke-linecap="round" stroke-linejoin="round"/>
<path d="M74.342 155.028L73.5668 166.764C73.5668 166.764 70.2675 182.509 69.2256 188.999C68.1837 195.49 66.2736 205.36 65.9263 205.36C65.579 205.36 59.8858 208.745 58.0625 211.509C56.2392 214.272 58.5524 215.443 61.0828 214.559C63.6131 213.674 67.0488 211.173 68.1713 208.202C69.2938 205.232 69.852 204.128 69.9264 203.646C70.0008 203.164 82.0012 171.474 83.1919 168.088C84.3826 164.703 86.9129 154.759 86.9129 154.759L92.8108 135.081C92.8108 135.081 99.1241 155.315 99.1986 156.211C99.273 157.108 105.723 208.825 106.02 210.758C106.318 212.692 106.231 214.071 107.422 214.486C108.613 214.9 111.422 214.9 112.898 214.9C114.374 214.9 119.497 215.663 122.021 215.041C124.545 214.418 124.83 214.004 123.075 212.759C121.32 211.515 111.571 210.722 110.672 207.098C110.597 206.824 110.529 153.588 110.529 153.588C110.529 153.588 109.686 135.983 108.284 131.018H75.8491L74.342 155.028Z" fill="white" stroke="#263238" stroke-linecap="round" stroke-linejoin="round"/>
<path d="M61.0765 214.547C63.6006 213.644 67.0426 211.161 68.1651 208.19L68.4008 207.58C66.9682 209.081 64.6797 211.167 64.6797 211.167C64.5395 210.459 64.2266 209.796 63.7681 209.233C63.568 209.016 63.3117 208.857 63.0266 208.772C62.7415 208.687 62.4383 208.68 62.1494 208.751L64.6301 206.067C62.7696 207.202 59.4207 209.52 58.1059 211.515C56.2268 214.266 58.5338 215.443 61.0765 214.547Z" fill="#263238" stroke="#263238" stroke-linecap="round" stroke-linejoin="round"/>
<path d="M123.032 212.747C121.829 211.899 116.886 211.259 113.587 209.776C113.45 209.89 113.344 210.034 113.276 210.197C113.067 210.782 112.903 211.381 112.787 211.991L105.965 210.557V210.746C106.244 212.68 106.175 214.059 107.366 214.473C108.557 214.888 111.366 214.888 112.842 214.888C114.318 214.888 119.441 215.651 121.965 215.028C124.489 214.406 124.812 214.016 123.032 212.747Z" fill="#263238" stroke="#263238" stroke-linecap="round" stroke-linejoin="round"/>
<path d="M83.7935 102.384C83.7935 102.384 80.5748 103.842 76.6801 110.723C72.4195 118.232 73.1513 122.405 73.0893 131.463C73.0273 140.522 72.8412 155.559 72.8412 155.559C72.8412 155.559 84.6245 158.664 93.0774 158.176C101.53 157.688 112.253 155.803 112.253 155.803C112.253 155.803 109.965 125.131 107.8 116.311C105.636 107.49 104.334 103.5 104.334 103.5C100.15 104.071 95.9116 104.133 91.7131 103.683C84.5377 102.994 83.7935 102.384 83.7935 102.384Z" fill="#263238" stroke="#263238" stroke-linecap="round" stroke-linejoin="round"/>
<path d="M97.3504 129.511C97.6729 130.554 97.9706 131.61 98.2311 132.665" stroke="white" stroke-linecap="round" stroke-linejoin="round"/>
<path d="M89.8773 112.248C92.3756 116.782 94.5194 121.497 96.2899 126.351" stroke="white" stroke-linecap="round" stroke-linejoin="round"/>
<path d="M162.797 96.5524C162.425 96.3084 156.329 95.369 156.329 95.369L155.138 94.8871C155.138 94.8871 162.518 95.4666 162.58 95.1616C162.642 94.8566 162.89 94.4906 162.394 94.4296C161.898 94.3686 152.403 92.4715 152.403 92.4715C152.403 92.4715 154.816 90.2266 155.126 89.7386C155.436 89.2506 155.864 88.2746 155.368 88.2746C154.871 88.2746 154.747 88.5796 154.071 89.0066C153.395 89.4336 150.729 90.4706 149.985 91.0745C149.24 91.6784 147.02 93.2645 147.02 93.2645L121.233 89.7752C121.233 89.7752 112.179 78.795 110.213 76.4526C108.846 74.8894 107.29 73.4964 105.58 72.3045C103.682 71.481 103.72 72.8597 103.72 72.8597L107.683 90.1839C107.683 90.1839 117.934 96.1925 118.567 96.1925C119.199 96.1925 146.896 97.0953 146.896 97.0953C146.896 97.0953 148.757 97.9493 149.922 98.6752C151.088 99.4012 158.524 101.725 158.524 101.725C158.524 101.725 159.02 101.481 158.462 101.054C157.904 100.627 154.32 98.9254 154.32 98.9254L161.762 100.511C161.762 100.511 162.196 100.206 162.01 99.9014C161.824 99.5964 155.188 97.1014 155.188 97.1014L162.63 97.4674C162.63 97.4674 163.163 96.7964 162.797 96.5524Z" fill="white" stroke="#263238" stroke-linecap="round" stroke-linejoin="round"/>
<path d="M119.677 87.8903C117.004 84.6511 111.664 78.185 110.213 76.4526C108.846 74.8894 107.29 73.4964 105.58 72.3045C103.682 71.481 103.72 72.8597 103.72 72.8597L107.683 90.1839C107.683 90.1839 112.309 92.8924 115.534 94.6736L119.677 87.8903Z" fill="white" stroke="#263238" stroke-linecap="round" stroke-linejoin="round"/>
<path d="M92.2713 70.8222C92.2713 70.8222 86.8882 71.0662 83.5888 74.6592C80.2895 78.2521 80.6802 86.1578 82.0446 90.9037C83.409 95.6496 85.1455 98.2665 84.7672 99.9136C84.3889 101.561 83.0369 102.103 83.7749 103.622C84.5129 105.141 88.7859 106.788 96.3334 106.544C103.881 106.3 105.307 104.714 105.369 103.324C105.431 101.933 104.873 100.768 105.059 99.9136C105.245 99.0595 110.69 94.3137 110.69 89.0798C110.69 83.8459 108.34 82.022 107.782 78.246C107.224 74.4701 107.41 73.9272 105.121 72.2801C102.833 70.6331 95.3039 69.7852 92.2713 70.8222Z" fill="white" stroke="#263238" stroke-linecap="round" stroke-linejoin="round"/>
<path d="M89.8278 88.9639C88.0286 90.4448 86.0317 91.6762 83.8927 92.624" stroke="#263238" stroke-linecap="round" stroke-linejoin="round"/>
<path d="M90.4231 89.5739C90.4231 89.5739 89.0898 93.8074 85.8214 96.1437" stroke="#263238" stroke-linecap="round" stroke-linejoin="round"/>
<path d="M103.782 74.6531L104.402 80.497L101.797 77.514L103.782 74.6531Z" fill="white" stroke="#263238" stroke-linecap="round" stroke-linejoin="round"/>
<path d="M100.315 80.985L103.782 74.6531L100.625 71.3102L100.315 80.985Z" fill="white" stroke="#263238" stroke-linecap="round" stroke-linejoin="round"/>
<path d="M93.6356 60.4765C94.1762 62.5863 94.445 64.7546 94.4356 66.9304C94.4176 68.3392 94.2723 69.7437 94.0015 71.1272L100.315 80.985L102.107 71.8348L103.286 65.5029C103.286 65.5029 96.1101 65.1003 93.6356 60.4765Z" fill="white" stroke="#263238" stroke-linecap="round" stroke-linejoin="round"/>
<path d="M99.9428 75.6901L100.315 80.985L98.4606 78.124L99.9428 75.6901Z" fill="white" stroke="#263238" stroke-linecap="round" stroke-linejoin="round"/>
<path d="M91.8991 70.8832L97.6543 81.046L99.9428 75.6901L93.8216 67.4123L91.8991 70.8832Z" fill="white" stroke="#263238" stroke-linecap="round" stroke-linejoin="round"/>
<path d="M192.727 75.623H140.502V117.775H192.727V75.623Z" fill="#407BFF"/>
<mask id="mask11_14_742" style="mask-type:luminance" maskUnits="userSpaceOnUse" x="140" y="75" width="53" height="43">
<path d="M192.727 75.623H140.502V117.775H192.727V75.623Z" fill="white"/>
</mask>
<g mask="url(#mask11_14_742)">
<path opacity="0.2" d="M192.727 75.623H140.502V117.775H192.727V75.623Z" fill="black"/>
</g>
<path d="M192.727 75.623H140.502V117.775H192.727V75.623Z" stroke="#263238" stroke-linecap="round" stroke-linejoin="round"/>
<path d="M181.669 75.623H129.444V117.775H181.669V75.623Z" fill="#407BFF" stroke="#263238" stroke-linecap="round" stroke-linejoin="round"/>
<path d="M201.329 131.963C199.654 129.353 192.727 117.775 192.727 117.775H181.675L187.362 131.963H201.329Z" fill="#407BFF"/>
<mask id="mask12_14_742" style="mask-type:luminance" maskUnits="userSpaceOnUse" x="181" y="117" width="21" height="15">
<path d="M201.329 131.963C199.654 129.353 192.727 117.775 192.727 117.775H181.675L187.362 131.963H201.329Z" fill="white"/>
</mask>
<g mask="url(#mask12_14_742)">
<path opacity="0.2" d="M201.329 131.963C199.654 129.353 192.727 117.775 192.727 117.775H181.675L187.362 131.963H201.329Z" fill="black"/>
</g>
<path d="M201.329 131.963C199.654 129.353 192.727 117.775 192.727 117.775H181.675L187.362 131.963H201.329Z" stroke="#263238" stroke-linecap="round" stroke-linejoin="round"/>
<path d="M120.812 131.963C122.486 129.353 129.407 117.775 129.407 117.775H140.465L134.778 131.963H120.812Z" fill="#407BFF" stroke="#263238" stroke-linecap="round" stroke-linejoin="round"/>
<path d="M129.407 117.775L124.601 131.963H179.145L181.675 117.775H129.407Z" fill="#407BFF" stroke="#263238" stroke-linecap="round" stroke-linejoin="round"/>
<path d="M199.449 90.8732V104.989" stroke="#263238" stroke-linecap="round" stroke-linejoin="round"/>
<path d="M202.166 96.9794V108.423" stroke="#263238" stroke-linecap="round" stroke-linejoin="round"/>
<path d="M123.832 104.989V113.761" stroke="#263238" stroke-linecap="round" stroke-linejoin="round"/>
<path d="M121.506 109.948V116.811" stroke="#263238" stroke-linecap="round" stroke-linejoin="round"/>
<path d="M83.2973 85.9749C85.1481 88.0367 87.296 89.8206 89.6727 91.2697C93.3938 93.4597 107.038 101.066 108.11 101.493C109.183 101.92 141.767 96.6866 141.767 96.6866C141.767 96.6866 143.628 97.5406 144.8 98.2665C145.972 98.9925 153.402 101.317 153.402 101.317C153.402 101.317 153.898 101.073 153.34 100.652C152.781 100.231 149.197 98.5167 149.197 98.5167L156.639 100.103C156.639 100.103 157.073 99.7977 156.887 99.4927C156.701 99.1877 150.065 96.6927 150.065 96.6927L157.507 97.0587C157.507 97.0587 158.065 96.3877 157.693 96.1437C157.321 95.8997 149.699 94.1917 149.699 94.1917C149.699 94.1917 157.805 93.5207 157.867 93.2157C157.929 92.9107 158.177 92.5508 157.681 92.4898C157.185 92.4288 147.039 91.4527 147.039 91.4527C147.039 91.4527 149.699 89.8118 150.009 89.3238C150.319 88.8358 150.754 87.8598 150.257 87.8598C149.761 87.8598 149.637 88.1648 148.961 88.5918C148.285 89.0188 145.619 90.0558 144.874 90.6597C144.13 91.2636 141.904 92.8558 141.904 92.8558L112.086 92.9168L93.5736 78.551" fill="white"/>
<path d="M83.2973 85.9749C85.1481 88.0367 87.296 89.8206 89.6727 91.2697C93.3938 93.4597 107.038 101.066 108.11 101.493C109.183 101.92 141.767 96.6866 141.767 96.6866C141.767 96.6866 143.628 97.5406 144.8 98.2665C145.972 98.9925 153.402 101.317 153.402 101.317C153.402 101.317 153.898 101.073 153.34 100.652C152.781 100.231 149.197 98.5167 149.197 98.5167L156.639 100.103C156.639 100.103 157.073 99.7977 156.887 99.4927C156.701 99.1877 150.065 96.6927 150.065 96.6927L157.507 97.0587C157.507 97.0587 158.065 96.3877 157.693 96.1437C157.321 95.8997 149.699 94.1917 149.699 94.1917C149.699 94.1917 157.805 93.5207 157.867 93.2157C157.929 92.9107 158.177 92.5508 157.681 92.4898C157.185 92.4288 147.039 91.4527 147.039 91.4527C147.039 91.4527 149.699 89.8118 150.009 89.3238C150.319 88.8358 150.754 87.8598 150.257 87.8598C149.761 87.8598 149.637 88.1648 148.961 88.5918C148.285 89.0188 145.619 90.0558 144.874 90.6597C144.13 91.2636 141.904 92.8558 141.904 92.8558L112.086 92.9168L93.5736 78.551" stroke="#263238" stroke-linecap="round" stroke-linejoin="round"/>
<path d="M157.668 92.4897C157.179 92.4287 147.026 91.4527 147.026 91.4527C147.026 91.4527 149.687 89.8118 149.997 89.3238C150.307 88.8358 150.741 87.8598 150.245 87.8598C149.749 87.8598 149.625 88.1648 148.949 88.5918C148.273 89.0188 145.606 90.0558 144.862 90.6597C144.118 91.2636 141.891 92.8557 141.891 92.8557L112.073 92.9167L108.768 90.3364C107.527 92.4775 105.208 96.4914 103.701 99.1388C106.02 100.408 107.776 101.353 108.129 101.493C109.183 101.92 141.786 96.6866 141.786 96.6866C141.786 96.6866 143.646 97.5406 144.818 98.2665C145.991 98.9924 153.42 101.317 153.42 101.317C153.42 101.317 153.916 101.073 153.358 100.652C152.8 100.231 149.216 98.5166 149.216 98.5166L156.658 100.103C156.658 100.103 157.092 99.7976 156.906 99.4926C156.72 99.1876 150.084 96.6927 150.084 96.6927L157.526 97.0587C157.526 97.0587 158.084 96.3877 157.712 96.1437C157.34 95.8997 149.699 94.1917 149.699 94.1917C149.699 94.1917 157.805 93.5207 157.867 93.2157C157.929 92.9106 158.165 92.5507 157.668 92.4897Z" fill="white" stroke="#263238" stroke-linecap="round" stroke-linejoin="round"/>
<path d="M107.738 55.3646C107.844 55.2384 107.984 55.1439 108.141 55.092C108.299 55.0401 108.468 55.0328 108.63 55.0709C108.791 55.1091 108.939 55.1912 109.055 55.3078C109.172 55.4244 109.253 55.5709 109.289 55.7306C109.392 56.3923 109.358 57.0679 109.187 57.716C109.017 58.3641 108.714 58.9713 108.296 59.5004C107.614 60.1715 106.994 60.3545 106.994 59.5004C107.166 58.1097 107.415 56.729 107.738 55.3646Z" fill="white" stroke="#263238" stroke-linecap="round" stroke-linejoin="round"/>
<path d="M100.123 44.7016C99.9052 47.6703 98.6137 50.4642 96.4822 52.5768C94.4965 54.4975 92.251 56.1396 89.8091 57.4569C89.8091 57.4569 90.1688 59.3662 90.9007 59.9641C91.6325 60.5619 93.0837 60.446 93.0837 60.446C93.9274 62.7149 95.2994 64.7581 97.09 66.4118C99.9986 69.0349 103.397 68.797 105.338 64.8624C107.279 60.9279 108.253 56.9811 108.011 54.7119L107.769 52.4426C107.769 52.4426 101.456 48.9961 100.123 44.7016Z" fill="white" stroke="#263238" stroke-linecap="round" stroke-linejoin="round"/>
<path d="M99.7567 56.4992C100.065 56.4992 100.315 56.0622 100.315 55.5232C100.315 54.9841 100.065 54.5472 99.7567 54.5472C99.4484 54.5472 99.1985 54.9841 99.1985 55.5232C99.1985 56.0622 99.4484 56.4992 99.7567 56.4992Z" fill="#263238"/>
<path d="M102.789 64.289C103.098 64.289 103.348 63.852 103.348 63.313C103.348 62.774 103.098 62.337 102.789 62.337C102.481 62.337 102.231 62.774 102.231 63.313C102.231 63.852 102.481 64.289 102.789 64.289Z" fill="#263238"/>
<path d="M105.14 56.4992C105.448 56.4992 105.698 56.0622 105.698 55.5232C105.698 54.9841 105.448 54.5472 105.14 54.5472C104.832 54.5472 104.582 54.9841 104.582 55.5232C104.582 56.0622 104.832 56.4992 105.14 56.4992Z" fill="#263238"/>
<path d="M104.024 54.4862C103.81 55.2169 103.747 55.9821 103.837 56.7371C104.024 57.7741 104.892 59.5371 104.148 59.8421C103.808 59.9944 103.432 60.0523 103.062 60.0092C102.691 59.9662 102.339 59.824 102.045 59.5981" stroke="#263238" stroke-linecap="round" stroke-linejoin="round"/>
<path d="M98.1443 53.7603C98.1443 53.7603 98.4419 51.8936 100.929 52.1071" stroke="#263238" stroke-linecap="round" stroke-linejoin="round"/>
<path d="M104.805 52.6805C104.805 52.6805 107.124 50.8505 107.875 54.1995" stroke="#263238" stroke-linecap="round" stroke-linejoin="round"/>
</svg>
